<svg xmlns="http://www.w3.org/2000/svg" xmlns:xlink="http://www.w3.org/1999/xlink" width="150" zoomAndPan="magnify" viewBox="0 0 375 374.999991" height="150" preserveAspectRatio="xMidYMid meet" version="1.0"><defs><g/><clipPath id="04ac3745cb"><path d="M 94.710938 27.390625 L 277 27.390625 L 277 141 L 94.710938 141 Z M 94.710938 27.390625 " clip-rule="nonzero"/></clipPath><clipPath id="82fdc77bc2"><path d="M 96 78 L 279.960938 78 L 279.960938 145.890625 L 96 145.890625 Z M 96 78 " clip-rule="nonzero"/></clipPath></defs><g clip-path="url(#04ac3745cb)"><path fill="#ee4036" d="M 171.464844 77.085938 C 165.027344 79.074219 158.46875 81.71875 151.910156 85.210938 L 148 76.605469 L 141.019531 91.769531 C 125.375 102.296875 109.730469 117.941406 94.929688 140.261719 L 147.578125 27.390625 L 148.238281 27.390625 Z M 249.800781 73.835938 C 237.40625 68 229.222656 65.777344 229.222656 59.335938 C 229.222656 53.742188 235.242188 49.109375 243.363281 49.109375 C 249.378906 49.109375 255.636719 51.695312 258.824219 58.132812 L 274.832031 46.941406 C 270.015625 33.886719 257.804688 27.808594 243.0625 27.808594 C 223.207031 27.808594 207.382812 40.144531 207.382812 58.855469 C 207.382812 64.511719 208.828125 69.023438 211.171875 72.753906 C 240.355469 74.859375 264.421875 87.617188 276.09375 95.015625 C 271.703125 86.050781 262.375 79.792969 249.800781 73.835938 Z M 249.800781 73.835938 " fill-opacity="1" fill-rule="nonzero"/></g><g clip-path="url(#82fdc77bc2)"><path fill="#000000" d="M 280.066406 113.910156 C 280.066406 117.457031 279.523438 120.769531 278.5625 123.777344 L 278.5625 123.898438 C 274.046875 137.734375 259.789062 146.097656 240.894531 146.097656 C 223.207031 146.097656 210.089844 138.699219 202.871094 125.339844 L 220.257812 113.125 C 225.011719 120.769531 231.929688 124.257812 241.257812 124.257812 C 251.425781 124.257812 258.285156 120.105469 258.285156 114.332031 C 258.285156 113.1875 257.984375 112.105469 257.503906 111.019531 C 226.996094 95.195312 201.246094 94.355469 180.609375 100.070312 L 202.089844 146.160156 L 178.082031 146.160156 L 171.101562 130.753906 L 162.5 111.863281 L 160.753906 108.074219 C 134.28125 122.453125 120.261719 145.558594 119.960938 146.097656 L 96.074219 146.097656 C 110.9375 123.714844 126.519531 108.132812 142.164062 97.605469 C 145.773438 95.136719 149.382812 92.972656 152.992188 91.046875 C 159.550781 87.554688 166.109375 84.847656 172.546875 82.921875 C 186.386719 78.710938 199.800781 77.628906 212.257812 78.53125 C 241.4375 80.636719 265.503906 93.390625 277.175781 100.792969 C 279.101562 104.703125 280.066406 108.976562 280.066406 113.910156 Z M 280.066406 113.910156 " fill-opacity="1" fill-rule="nonzero"/></g><g fill="#3b3937" fill-opacity="1"><g transform="translate(83.645437, 179.600028)"><g><path d="M 13.90625 0 L 13.15625 -2.515625 L 6.890625 -2.515625 L 6.140625 0 L 0.265625 0 L 6.78125 -17.890625 L 13.46875 -17.890625 L 20 0 Z M 8.09375 -6.53125 L 11.953125 -6.53125 L 10.09375 -12.890625 L 9.984375 -12.890625 Z M 8.09375 -6.53125 "/></g></g></g><g fill="#3b3937" fill-opacity="1"><g transform="translate(103.867375, 179.600028)"><g><path d="M 1.921875 -17.890625 L 16.375 -17.890625 L 16.375 -13.59375 L 7.671875 -13.59375 L 7.671875 -10.53125 L 15.15625 -10.53125 L 15.15625 -6.421875 L 7.671875 -6.421875 L 7.671875 0 L 1.921875 0 Z M 1.921875 -17.890625 "/></g></g></g><g fill="#ff3131" fill-opacity="1"><g transform="translate(121.215747, 179.600028)"><g><path d="M 12.21875 -13.3125 L 12.21875 0 L 6.46875 0 L 6.46875 -13.3125 L 0.59375 -13.3125 L 0.59375 -17.890625 L 18.0625 -17.890625 L 18.0625 -13.3125 Z M 12.21875 -13.3125 "/></g></g></g><g fill="#ff3131" fill-opacity="1"><g transform="translate(139.982122, 179.600028)"><g><path d="M 1.921875 -17.890625 L 17.390625 -17.890625 L 17.390625 -13.59375 L 7.671875 -13.59375 L 7.671875 -11.125 L 15.984375 -11.125 L 15.984375 -7.015625 L 7.671875 -7.015625 L 7.671875 -4.296875 L 17.578125 -4.296875 L 17.578125 0 L 1.921875 0 Z M 1.921875 -17.890625 "/></g></g></g><g fill="#ff3131" fill-opacity="1"><g transform="translate(158.748497, 179.600028)"><g><path d="M 18.90625 -12.40625 C 18.90625 -11.3125 18.609375 -10.320312 18.015625 -9.4375 C 17.429688 -8.550781 16.570312 -7.898438 15.4375 -7.484375 L 19.421875 0 L 12.96875 0 L 9.796875 -6.53125 L 7.671875 -6.53125 L 7.671875 0 L 1.921875 0 L 1.921875 -17.890625 L 12.875 -17.890625 C 14.15625 -17.890625 15.25 -17.640625 16.15625 -17.140625 C 17.070312 -16.648438 17.757812 -15.984375 18.21875 -15.140625 C 18.675781 -14.304688 18.90625 -13.394531 18.90625 -12.40625 Z M 13.046875 -12.171875 C 13.046875 -12.640625 12.890625 -13.03125 12.578125 -13.34375 C 12.265625 -13.65625 11.882812 -13.8125 11.4375 -13.8125 L 7.671875 -13.8125 L 7.671875 -10.5 L 11.4375 -10.5 C 11.882812 -10.5 12.265625 -10.660156 12.578125 -10.984375 C 12.890625 -11.304688 13.046875 -11.703125 13.046875 -12.171875 Z M 13.046875 -12.171875 "/></g></g></g><g fill="#3b3937" fill-opacity="1"><g transform="translate(178.977462, 179.600028)"><g/></g></g><g fill="#ee4036" fill-opacity="1"><g transform="translate(187.637618, 179.600028)"><g><path d="M 9.4375 -18.203125 C 11.726562 -18.203125 13.609375 -17.738281 15.078125 -16.8125 C 16.554688 -15.882812 17.3125 -14.507812 17.34375 -12.6875 L 17.34375 -12.375 L 11.953125 -12.375 L 11.953125 -12.484375 C 11.953125 -13.003906 11.757812 -13.4375 11.375 -13.78125 C 11 -14.125 10.421875 -14.296875 9.640625 -14.296875 C 8.878906 -14.296875 8.296875 -14.179688 7.890625 -13.953125 C 7.484375 -13.734375 7.28125 -13.457031 7.28125 -13.125 C 7.28125 -12.65625 7.554688 -12.304688 8.109375 -12.078125 C 8.660156 -11.859375 9.554688 -11.628906 10.796875 -11.390625 C 12.234375 -11.097656 13.414062 -10.789062 14.34375 -10.46875 C 15.269531 -10.144531 16.078125 -9.617188 16.765625 -8.890625 C 17.460938 -8.160156 17.820312 -7.171875 17.84375 -5.921875 C 17.84375 -3.804688 17.125 -2.238281 15.6875 -1.21875 C 14.257812 -0.195312 12.347656 0.3125 9.953125 0.3125 C 7.160156 0.3125 4.988281 -0.15625 3.4375 -1.09375 C 1.894531 -2.03125 1.125 -3.6875 1.125 -6.0625 L 6.546875 -6.0625 C 6.546875 -5.15625 6.78125 -4.550781 7.25 -4.25 C 7.71875 -3.945312 8.445312 -3.796875 9.4375 -3.796875 C 10.164062 -3.796875 10.765625 -3.875 11.234375 -4.03125 C 11.710938 -4.1875 11.953125 -4.503906 11.953125 -4.984375 C 11.953125 -5.421875 11.6875 -5.75 11.15625 -5.96875 C 10.632812 -6.1875 9.773438 -6.414062 8.578125 -6.65625 C 7.117188 -6.96875 5.910156 -7.289062 4.953125 -7.625 C 4.003906 -7.96875 3.175781 -8.53125 2.46875 -9.3125 C 1.757812 -10.09375 1.40625 -11.148438 1.40625 -12.484375 C 1.40625 -14.441406 2.160156 -15.882812 3.671875 -16.8125 C 5.191406 -17.738281 7.113281 -18.203125 9.4375 -18.203125 Z M 9.4375 -18.203125 "/></g></g></g><g fill="#ee4036" fill-opacity="1"><g transform="translate(206.403993, 179.600028)"><g><path d="M 10.453125 -18.203125 C 13.109375 -18.203125 15.207031 -17.535156 16.75 -16.203125 C 18.289062 -14.878906 19.0625 -12.988281 19.0625 -10.53125 L 13.578125 -10.53125 C 13.578125 -11.570312 13.300781 -12.394531 12.75 -13 C 12.207031 -13.601562 11.429688 -13.90625 10.421875 -13.90625 C 9.265625 -13.90625 8.410156 -13.539062 7.859375 -12.8125 C 7.316406 -12.082031 7.046875 -11.070312 7.046875 -9.78125 L 7.046875 -8.109375 C 7.046875 -6.828125 7.316406 -5.816406 7.859375 -5.078125 C 8.410156 -4.347656 9.25 -3.984375 10.375 -3.984375 C 11.476562 -3.984375 12.316406 -4.265625 12.890625 -4.828125 C 13.460938 -5.398438 13.75 -6.207031 13.75 -7.25 L 19.0625 -7.25 C 19.0625 -4.8125 18.3125 -2.941406 16.8125 -1.640625 C 15.3125 -0.335938 13.191406 0.3125 10.453125 0.3125 C 7.398438 0.3125 5.085938 -0.46875 3.515625 -2.03125 C 1.953125 -3.59375 1.171875 -5.894531 1.171875 -8.9375 C 1.171875 -11.988281 1.953125 -14.296875 3.515625 -15.859375 C 5.085938 -17.421875 7.398438 -18.203125 10.453125 -18.203125 Z M 10.453125 -18.203125 "/></g></g></g><g fill="#ee4036" fill-opacity="1"><g transform="translate(226.62593, 179.600028)"><g><path d="M 13.984375 0 L 13.984375 -6.78125 L 7.671875 -6.78125 L 7.671875 0 L 1.921875 0 L 1.921875 -17.890625 L 7.671875 -17.890625 L 7.671875 -11.359375 L 13.984375 -11.359375 L 13.984375 -17.890625 L 19.734375 -17.890625 L 19.734375 0 Z M 13.984375 0 "/></g></g></g><g fill="#3b3937" fill-opacity="1"><g transform="translate(248.282149, 179.600028)"><g><path d="M 10.8125 -18.203125 C 13.894531 -18.203125 16.273438 -17.410156 17.953125 -15.828125 C 19.640625 -14.253906 20.484375 -11.957031 20.484375 -8.9375 C 20.484375 -5.925781 19.640625 -3.628906 17.953125 -2.046875 C 16.273438 -0.472656 13.894531 0.3125 10.8125 0.3125 C 7.726562 0.3125 5.347656 -0.46875 3.671875 -2.03125 C 2.003906 -3.601562 1.171875 -5.90625 1.171875 -8.9375 C 1.171875 -11.976562 2.003906 -14.28125 3.671875 -15.84375 C 5.347656 -17.414062 7.726562 -18.203125 10.8125 -18.203125 Z M 10.8125 -13.90625 C 9.582031 -13.90625 8.644531 -13.53125 8 -12.78125 C 7.363281 -12.039062 7.046875 -11.039062 7.046875 -9.78125 L 7.046875 -8.109375 C 7.046875 -6.847656 7.363281 -5.84375 8 -5.09375 C 8.644531 -4.351562 9.582031 -3.984375 10.8125 -3.984375 C 12.039062 -3.984375 12.976562 -4.351562 13.625 -5.09375 C 14.28125 -5.84375 14.609375 -6.847656 14.609375 -8.109375 L 14.609375 -9.78125 C 14.609375 -11.039062 14.28125 -12.039062 13.625 -12.78125 C 12.976562 -13.53125 12.039062 -13.90625 10.8125 -13.90625 Z M 10.8125 -13.90625 "/></g></g></g><g fill="#3b3937" fill-opacity="1"><g transform="translate(269.93366, 179.600028)"><g><path d="M 10.8125 -18.203125 C 13.894531 -18.203125 16.273438 -17.410156 17.953125 -15.828125 C 19.640625 -14.253906 20.484375 -11.957031 20.484375 -8.9375 C 20.484375 -5.925781 19.640625 -3.628906 17.953125 -2.046875 C 16.273438 -0.472656 13.894531 0.3125 10.8125 0.3125 C 7.726562 0.3125 5.347656 -0.46875 3.671875 -2.03125 C 2.003906 -3.601562 1.171875 -5.90625 1.171875 -8.9375 C 1.171875 -11.976562 2.003906 -14.28125 3.671875 -15.84375 C 5.347656 -17.414062 7.726562 -18.203125 10.8125 -18.203125 Z M 10.8125 -13.90625 C 9.582031 -13.90625 8.644531 -13.53125 8 -12.78125 C 7.363281 -12.039062 7.046875 -11.039062 7.046875 -9.78125 L 7.046875 -8.109375 C 7.046875 -6.847656 7.363281 -5.84375 8 -5.09375 C 8.644531 -4.351562 9.582031 -3.984375 10.8125 -3.984375 C 12.039062 -3.984375 12.976562 -4.351562 13.625 -5.09375 C 14.28125 -5.84375 14.609375 -6.847656 14.609375 -8.109375 L 14.609375 -9.78125 C 14.609375 -11.039062 14.28125 -12.039062 13.625 -12.78125 C 12.976562 -13.53125 12.039062 -13.90625 10.8125 -13.90625 Z M 10.8125 -13.90625 "/></g></g></g><g fill="#3b3937" fill-opacity="1"><g transform="translate(291.58517, 179.600028)"><g><path d="M 1.921875 -17.890625 L 7.671875 -17.890625 L 7.671875 -4.578125 L 16.84375 -4.578125 L 16.84375 0 L 1.921875 0 Z M 1.921875 -17.890625 "/></g></g></g></svg>